<svg xmlns="http://www.w3.org/2000/svg">
  <symbol id="i-fb" viewBox="0 0 24 24">
    <path d="M22 12.06C22 6.48 17.52 2 11.94 2S2 6.48 2 12.06c0 4.99 3.66 9.13 8.44 9.94v-7.03H7.9v-2.91h2.54V9.41c0-2.51 1.49-3.9 3.77-3.9 1.09 0 2.23.2 2.23.2v2.45h-1.26c-1.24 0-1.62.77-1.62 1.56v1.87h2.76l-.44 2.91h-2.32v7.03C18.34 21.19 22 17.05 22 12.06z"/>
  </symbol>

  <symbol id="i-li" viewBox="0 0 24 24">
    <path d="M20.45 20.45h-3.56v-5.61c0-1.34-.02-3.06-1.86-3.06-1.86 0-2.14 1.45-2.14 2.96v5.71H9.33V9.56h3.41v1.49h.05c.47-.88 1.61-1.8 3.32-1.8 3.55 0 4.21 2.34 4.21 5.39v5.81zM5.34 8.07a2.07 2.07 0 1 1 0-4.14 2.07 2.07 0 0 1 0 4.14zM7.12 20.45H3.55V9.56h3.57v10.89z"/>
  </symbol>

  <symbol id="i-ig" viewBox="0 0 24 24">
    <path d="M7 2h10a5 5 0 0 1 5 5v10a5 5 0 0 1-5 5H7a5 5 0 0 1-5-5V7a5 5 0 0 1 5-5zm0 2a3 3 0 0 0-3 3v10a3 3 0 0 0 3 3h10a3 3 0 0 0 3-3V7a3 3 0 0 0-3-3H7zm5 3.5a5.5 5.5 0 1 1 0 11 5.5 5.5 0 0 1 0-11zm0 2a3.5 3.5 0 1 0 0 7 3.5 3.5 0 0 0 0-7zm5.75-.75a.75.75 0 1 1 0 1.5.75.75 0 0 1 0-1.5z"/>
  </symbol>

  <symbol id="i-office" viewBox="0 0 24 24">
    <path d="M4 3h10v18H4V3zm12 6h4v12h-4V9zM6 5v4h2V5H6zm0 6v4h2v-4H6zm0 6v2h2v-2H6zm8-6v4h2v-4h-2zm0 6v2h2v-2h-2z"/>
  </symbol>

  <symbol id="i-phone" viewBox="0 0 24 24">
    <path d="M6.62 10.79a15.05 15.05 0 0 0 6.59 6.59l2.2-2.2a1 1 0 0 1 1.01-.24c1.11.37 2.3.57 3.58.57a1 1 0 0 1 1 1V20a1 1 0 0 1-1 1C11.85 21 3 12.15 3 1a1 1 0 0 1 1-1h3.49a1 1 0 0 1 1 1c0 1.28.2 2.47.57 3.58a1 1 0 0 1-.24 1.01l-2.2 2.2z"/>
  </symbol>

  <symbol id="i-mail" viewBox="0 0 24 24">
    <path d="M20 4H4a2 2 0 0 0-2 2v12a2 2 0 0 0 2 2h16a2 2 0 0 0 2-2V6a2 2 0 0 0-2-2zm0 4-8 5-8-5V6l8 5 8-5v2z"/>
  </symbol>
</svg>
